P1
25 6
111101110010010011001110010000100101001010010100101110010010100101001010010100001110010010111101110010000100001001010010101001000010000011001001010010